<svg width="48" height="57" viewBox="0 0 48 57" fill="none" xmlns="http://www.w3.org/2000/svg">
<path d="M16.0765 36.6172C16.4851 36.0757 16.3647 35.3269 15.8407 34.9315L13.692 33.3102C13.1504 32.9016 12.4017 33.022 12.0062 33.5461L0.987032 48.1502C0.591606 48.6742 0.69881 49.4405 1.22288 49.8359L3.3541 51.444C3.89564 51.8526 4.64442 51.7322 5.03984 51.2081L16.059 36.604L16.0765 36.6172Z" fill="#4D2541"/>
<path d="M15.8144 36.4195C16.223 35.8779 16.1026 35.1291 15.5786 34.7337L13.4299 33.1125C12.8883 32.7039 12.1396 32.8242 11.7441 33.3483L0.724947 47.9524C0.329521 48.4765 0.436725 49.2427 0.960796 49.6382L3.09202 51.2462C3.63356 51.6548 4.38233 51.5344 4.77776 51.0104L15.797 36.4063L15.8144 36.4195Z" fill="#414664"/>
<path d="M12.5014 37.8674C12.2378 38.2168 11.7474 38.2854 11.398 38.0218C11.0487 37.7581 10.9801 37.2677 11.2437 36.9184C11.5073 36.569 11.9977 36.5004 12.3471 36.764C12.6965 37.0276 12.7651 37.518 12.5014 37.8674Z" fill="#B6BBCF"/>
<path d="M13.9117 35.9981C13.6481 36.3475 13.1577 36.4161 12.8083 36.1525C12.4589 35.8889 12.3903 35.3985 12.654 35.0491C12.9176 34.6997 13.408 34.6311 13.7574 34.8947C14.1067 35.1583 14.1753 35.6487 13.9117 35.9981Z" fill="#B6BBCF"/>
<path d="M22.6248 39.4198L13.5738 31.7955L37.3125 0.333831C37.413 0.382268 37.5178 0.46135 37.6226 0.540435C45.1518 6.22138 42.9937 13.9139 37.4841 21.216C31.9613 28.5355 22.6248 39.4198 22.6248 39.4198Z" fill="#565B79"/>
<path d="M22.2405 39.1298L12.0823 32.9729L36.9414 0.0263386C37.0419 0.074773 37.1467 0.153858 37.2515 0.232943C44.7807 5.91389 42.6226 13.6064 37.113 20.9085C31.577 28.2454 22.2405 39.1298 22.2405 39.1298Z" fill="#FFF7F0"/>
<path d="M25.6886 18.21C25.4777 18.4895 25.066 18.5627 24.7691 18.3387C24.4896 18.1278 24.4163 17.7161 24.6404 17.4192C24.8513 17.1397 25.2629 17.0664 25.5599 17.2905C25.8394 17.5014 25.8995 17.9305 25.6886 18.21Z" fill="#99A0B6"/>
<path d="M38.5317 17.6475C38.3208 17.927 37.9092 18.0002 37.6122 17.7762C37.3152 17.5521 37.2595 17.1536 37.4836 16.8567C37.6945 16.5772 38.1061 16.5039 38.4031 16.728C38.7 16.9521 38.7558 17.3505 38.5317 17.6475Z" fill="#99A0B6"/>
<path d="M23.0143 36.3965C22.8297 36.6411 22.4619 36.6925 22.2174 36.508C21.9728 36.3235 21.9214 35.9557 22.1059 35.7111C22.2904 35.4665 22.6582 35.4151 22.9028 35.5996C23.1473 35.7841 23.1988 36.1519 23.0143 36.3965Z" fill="#99A0B6"/>
<path d="M23.5057 34.4371C23.3871 34.5943 23.1726 34.6243 23.0153 34.5057C22.8581 34.3871 22.8281 34.1725 22.9467 34.0153C23.0654 33.8581 23.2799 33.8281 23.4371 33.9467C23.5944 34.0653 23.6244 34.2799 23.5057 34.4371Z" fill="#99A0B6"/>
<path d="M21.3373 35.1312C21.2187 35.2884 21.0041 35.3184 20.8469 35.1998C20.6897 35.0812 20.6596 34.8666 20.7783 34.7094C20.8969 34.5522 21.1115 34.5221 21.2687 34.6408C21.4391 34.7419 21.4559 34.974 21.3373 35.1312Z" fill="#99A0B6"/>
<path d="M27.0853 18.0301C26.9667 18.1873 26.7653 18.1999 26.6256 18.0944C26.4683 17.9758 26.4558 17.7744 26.5612 17.6347C26.6799 17.4775 26.8812 17.4649 27.021 17.5704C27.1607 17.6758 27.2039 17.8729 27.0853 18.0301Z" fill="#99A0B6"/>
<path d="M38.162 15.3398C38.0433 15.497 37.842 15.5096 37.7022 15.4041C37.545 15.2855 37.5325 15.0841 37.6379 14.9444C37.7565 14.7872 37.9579 14.7746 38.0976 14.8801C38.2374 14.9855 38.2674 15.2001 38.162 15.3398Z" fill="#99A0B6"/>
<path d="M24.7572 34.5589C24.6649 34.6812 24.4678 34.7244 24.3281 34.619C24.2058 34.5267 24.1626 34.3296 24.268 34.1899C24.3603 34.0676 24.5574 34.0244 24.6971 34.1298C24.8237 34.2528 24.8494 34.4367 24.7572 34.5589Z" fill="#99A0B6"/>
<path d="M25.1696 32.7043C25.0774 32.8266 24.8803 32.8698 24.7405 32.7644C24.6183 32.6721 24.5751 32.475 24.6805 32.3353C24.7728 32.213 24.9698 32.1698 25.1096 32.2752C25.2362 32.3982 25.2619 32.5821 25.1696 32.7043Z" fill="#99A0B6"/>
<path d="M36.3594 19.6545C36.2407 19.8117 36.0394 19.8243 35.8996 19.7188C35.7599 19.6134 35.7298 19.3988 35.8353 19.2591C35.9539 19.1019 36.1553 19.0893 36.295 19.1948C36.4348 19.3002 36.4648 19.5148 36.3594 19.6545Z" fill="#99A0B6"/>
<path d="M28.4029 31.5801C28.3106 31.7023 28.1136 31.7455 27.9738 31.6401C27.8515 31.5478 27.8083 31.3508 27.9138 31.211C28.006 31.0887 28.2031 31.0455 28.3429 31.151C28.4826 31.2564 28.5084 31.4403 28.4029 31.5801Z" fill="#99A0B6"/>
<path d="M27.5879 15.2568C27.4693 15.414 27.2241 15.4483 27.0669 15.3297C26.9096 15.211 26.8753 14.9658 26.994 14.8086C27.1126 14.6514 27.3578 14.6171 27.515 14.7357C27.6897 14.8675 27.7065 15.0995 27.5879 15.2568Z" fill="#99A0B6"/>
</svg>
