<svg width="69" height="57" viewBox="0 0 69 57" fill="none" xmlns="http://www.w3.org/2000/svg">
<g clip-path="url(#clip0_39_21409)">
<path d="M31.3987 36.7295C30.9901 36.188 31.1105 35.4392 31.6346 35.0438L33.7833 33.4225C34.3248 33.0139 35.0736 33.1343 35.469 33.6584L46.4882 48.2625C46.8836 48.7865 46.7764 49.5528 46.2523 49.9482L44.1211 51.5563C43.5796 51.9649 42.8308 51.8445 42.4354 51.3204L31.4162 36.7163L31.3987 36.7295Z" fill="#4D2541"/>
<path d="M31.6607 36.5318C31.2521 35.9902 31.3725 35.2414 31.8966 34.846L34.0453 33.2248C34.5868 32.8162 35.3356 32.9366 35.731 33.4606L46.7502 48.0647C47.1456 48.5888 47.0384 49.355 46.5144 49.7505L44.3831 51.3585C43.8416 51.7671 43.0928 51.6467 42.6974 51.1227L31.6782 36.5186L31.6607 36.5318Z" fill="#414664"/>
<path d="M34.9738 37.9797C35.2374 38.3291 35.7278 38.3977 36.0772 38.1341C36.4266 37.8704 36.4952 37.38 36.2315 37.0307C35.9679 36.6813 35.4775 36.6127 35.1281 36.8763C34.7788 37.1399 34.7102 37.6303 34.9738 37.9797Z" fill="#B6BBCF"/>
<path d="M33.5634 36.1104C33.8271 36.4598 34.3174 36.5284 34.6668 36.2648C35.0162 36.0012 35.0848 35.5108 34.8212 35.1614C34.5576 34.812 34.0672 34.7434 33.7178 35.007C33.3684 35.2706 33.2998 35.761 33.5634 36.1104Z" fill="#B6BBCF"/>
<path d="M24.8504 39.5321L33.9014 31.9078L10.1627 0.446135C10.0621 0.494573 9.95733 0.573655 9.85252 0.65274C2.32337 6.33369 4.48148 14.0262 9.99108 21.3283C15.5139 28.6478 24.8504 39.5321 24.8504 39.5321Z" fill="#565B79"/>
<path d="M25.2347 39.2421L35.3929 33.0852L10.5339 0.138643C10.4333 0.187078 10.3285 0.266163 10.2237 0.345248C2.69455 6.0262 4.85267 13.7187 10.3623 21.0208C15.8982 28.3577 25.2347 39.2421 25.2347 39.2421Z" fill="#FFF7F0"/>
<path d="M21.7866 18.3223C21.9975 18.6018 22.4091 18.675 22.7061 18.451C22.9856 18.2401 23.0588 17.8284 22.8347 17.5315C22.6238 17.252 22.2122 17.1788 21.9152 17.4028C21.6357 17.6137 21.5757 18.0428 21.7866 18.3223Z" fill="#99A0B6"/>
<path d="M8.94346 17.7598C9.15435 18.0393 9.56598 18.1125 9.86295 17.8885C10.1599 17.6644 10.2157 17.2659 9.9916 16.969C9.78071 16.6895 9.36908 16.6163 9.0721 16.8403C8.77513 17.0644 8.71938 17.4629 8.94346 17.7598Z" fill="#99A0B6"/>
<path d="M24.4609 36.5088C24.6454 36.7534 25.0132 36.8048 25.2578 36.6203C25.5023 36.4358 25.5538 36.068 25.3693 35.8234C25.1847 35.5788 24.8169 35.5274 24.5724 35.7119C24.3278 35.8964 24.2764 36.2642 24.4609 36.5088Z" fill="#99A0B6"/>
<path d="M23.9694 34.5494C24.088 34.7066 24.3025 34.7366 24.4598 34.618C24.617 34.4994 24.647 34.2848 24.5284 34.1276C24.4097 33.9704 24.1952 33.9404 24.038 34.059C23.8807 34.1776 23.8507 34.3922 23.9694 34.5494Z" fill="#99A0B6"/>
<path d="M26.1379 35.2435C26.2565 35.4007 26.4711 35.4307 26.6283 35.3121C26.7855 35.1935 26.8155 34.9789 26.6969 34.8217C26.5783 34.6645 26.3637 34.6345 26.2065 34.7531C26.0361 34.8542 26.0192 35.0863 26.1379 35.2435Z" fill="#99A0B6"/>
<path d="M20.3898 18.1424C20.5085 18.2996 20.7098 18.3122 20.8496 18.2067C21.0068 18.0881 21.0194 17.8867 20.9139 17.747C20.7953 17.5898 20.5939 17.5772 20.4542 17.6827C20.3144 17.7881 20.2712 17.9852 20.3898 18.1424Z" fill="#99A0B6"/>
<path d="M9.31319 15.4521C9.43182 15.6093 9.63319 15.6219 9.77294 15.5164C9.93016 15.3978 9.94271 15.1964 9.83726 15.0567C9.71863 14.8995 9.51726 14.8869 9.37751 14.9924C9.23776 15.0978 9.20774 15.3124 9.31319 15.4521Z" fill="#99A0B6"/>
<path d="M22.718 34.6712C22.8103 34.7935 23.0073 34.8367 23.1471 34.7313C23.2694 34.639 23.3126 34.4419 23.2071 34.3022C23.1149 34.1799 22.9178 34.1367 22.778 34.2422C22.6515 34.3651 22.6257 34.549 22.718 34.6712Z" fill="#99A0B6"/>
<path d="M22.3056 32.8166C22.3978 32.9389 22.5949 32.9821 22.7347 32.8767C22.857 32.7844 22.9002 32.5873 22.7947 32.4476C22.7025 32.3253 22.5054 32.2821 22.3656 32.3875C22.239 32.5105 22.2133 32.6944 22.3056 32.8166Z" fill="#99A0B6"/>
<path d="M11.1158 19.7668C11.2344 19.924 11.4358 19.9366 11.5755 19.8311C11.7153 19.7257 11.7453 19.5111 11.6399 19.3714C11.5213 19.2142 11.3199 19.2016 11.1801 19.3071C11.0404 19.4125 11.0104 19.6271 11.1158 19.7668Z" fill="#99A0B6"/>
<path d="M19.0722 31.6924C19.1645 31.8147 19.3616 31.8578 19.5013 31.7524C19.6236 31.6601 19.6668 31.4631 19.5614 31.3233C19.4691 31.201 19.272 31.1578 19.1323 31.2633C18.9925 31.3687 18.9668 31.5526 19.0722 31.6924Z" fill="#99A0B6"/>
<path d="M19.8873 15.3691C20.0059 15.5263 20.2511 15.5606 20.4083 15.442C20.5656 15.3233 20.5999 15.0781 20.4812 14.9209C20.3626 14.7637 20.1174 14.7294 19.9602 14.848C19.7855 14.9798 19.7687 15.2119 19.8873 15.3691Z" fill="#99A0B6"/>
</g>
<g clip-path="url(#clip1_39_21409)">
<path d="M37.2238 36.6605C37.6324 36.119 37.512 35.3702 36.9879 34.9748L34.8392 33.3536C34.2977 32.945 33.5489 33.0653 33.1535 33.5894L22.1343 48.1935C21.7389 48.7176 21.8461 49.4838 22.3702 49.8792L24.5014 51.4873C25.0429 51.8959 25.7917 51.7755 26.1871 51.2515L37.2063 36.6474L37.2238 36.6605Z" fill="#4D2541"/>
<path d="M36.9618 36.4628C37.3704 35.9213 37.25 35.1725 36.7259 34.777L34.5772 33.1558C34.0357 32.7472 33.2869 32.8676 32.8915 33.3917L21.8723 47.9957C21.4769 48.5198 21.5841 49.2861 22.1081 49.6815L24.2394 51.2896C24.7809 51.6982 25.5297 51.5778 25.9251 51.0537L36.9443 36.4496L36.9618 36.4628Z" fill="#414664"/>
<path d="M33.6487 37.9107C33.3851 38.2601 32.8947 38.3287 32.5453 38.0651C32.1959 37.8015 32.1273 37.3111 32.391 36.9617C32.6546 36.6123 33.145 36.5437 33.4944 36.8073C33.8437 37.0709 33.9123 37.5613 33.6487 37.9107Z" fill="#B6BBCF"/>
<path d="M35.0591 36.0415C34.7954 36.3908 34.305 36.4594 33.9557 36.1958C33.6063 35.9322 33.5377 35.4418 33.8013 35.0924C34.0649 34.743 34.5553 34.6744 34.9047 34.9381C35.2541 35.2017 35.3227 35.6921 35.0591 36.0415Z" fill="#B6BBCF"/>
<path d="M43.7721 39.4631L34.7211 31.8389L58.4598 0.377167C58.5604 0.425602 58.6652 0.504686 58.77 0.583771C66.2991 6.26472 64.141 13.9572 58.6314 21.2593C53.1086 28.5788 43.7721 39.4631 43.7721 39.4631Z" fill="#565B79"/>
<path d="M43.3878 39.1731L33.2296 33.0162L58.0886 0.0696731C58.1892 0.118108 58.294 0.197192 58.3988 0.276277C65.9279 5.95723 63.7698 13.6497 58.2602 20.9518C52.7243 28.2888 43.3878 39.1731 43.3878 39.1731Z" fill="#FFF7F0"/>
<path d="M46.8359 18.2534C46.625 18.5329 46.2134 18.6061 45.9164 18.382C45.6369 18.1711 45.5637 17.7595 45.7878 17.4625C45.9987 17.183 46.4103 17.1098 46.7073 17.3339C46.9868 17.5447 47.0468 17.9738 46.8359 18.2534Z" fill="#99A0B6"/>
<path d="M59.679 17.6909C59.4681 17.9704 59.0565 18.0436 58.7595 17.8195C58.4626 17.5954 58.4068 17.197 58.6309 16.9C58.8418 16.6205 59.2534 16.5473 59.5504 16.7714C59.8474 16.9954 59.9031 17.3939 59.679 17.6909Z" fill="#99A0B6"/>
<path d="M44.1616 36.4398C43.9771 36.6844 43.6093 36.7359 43.3647 36.5513C43.1202 36.3668 43.0687 35.999 43.2532 35.7544C43.4378 35.5099 43.8056 35.4584 44.0501 35.6429C44.2947 35.8275 44.3461 36.1953 44.1616 36.4398Z" fill="#99A0B6"/>
<path d="M44.6531 34.4804C44.5345 34.6376 44.32 34.6677 44.1627 34.549C44.0055 34.4304 43.9755 34.2159 44.0941 34.0586C44.2128 33.9014 44.4273 33.8714 44.5845 33.99C44.7418 34.1086 44.7718 34.3232 44.6531 34.4804Z" fill="#99A0B6"/>
<path d="M42.4846 35.1745C42.366 35.3317 42.1514 35.3617 41.9942 35.2431C41.837 35.1245 41.807 34.9099 41.9256 34.7527C42.0442 34.5955 42.2588 34.5655 42.416 34.6841C42.5864 34.7853 42.6033 35.0173 42.4846 35.1745Z" fill="#99A0B6"/>
<path d="M48.2326 18.0735C48.114 18.2307 47.9127 18.2432 47.7729 18.1378C47.6157 18.0191 47.6031 17.8178 47.7086 17.678C47.8272 17.5208 48.0286 17.5083 48.1683 17.6137C48.3081 17.7191 48.3513 17.9162 48.2326 18.0735Z" fill="#99A0B6"/>
<path d="M59.3093 15.3831C59.1907 15.5404 58.9893 15.5529 58.8496 15.4475C58.6923 15.3288 58.6798 15.1275 58.7852 14.9877C58.9039 14.8305 59.1052 14.8179 59.245 14.9234C59.3847 15.0288 59.4148 15.2434 59.3093 15.3831Z" fill="#99A0B6"/>
<path d="M45.9045 34.6023C45.8122 34.7246 45.6152 34.7678 45.4754 34.6623C45.3531 34.57 45.3099 34.373 45.4154 34.2332C45.5076 34.1109 45.7047 34.0677 45.8445 34.1732C45.971 34.2961 45.9968 34.48 45.9045 34.6023Z" fill="#99A0B6"/>
<path d="M46.3169 32.7477C46.2246 32.87 46.0276 32.9131 45.8878 32.8077C45.7655 32.7154 45.7223 32.5184 45.8278 32.3786C45.92 32.2563 46.1171 32.2131 46.2569 32.3186C46.3835 32.4415 46.4092 32.6254 46.3169 32.7477Z" fill="#99A0B6"/>
<path d="M57.5067 19.6978C57.3881 19.8551 57.1867 19.8676 57.0469 19.7622C56.9072 19.6567 56.8772 19.4422 56.9826 19.3024C57.1012 19.1452 57.3026 19.1327 57.4424 19.2381C57.5821 19.3436 57.6121 19.5581 57.5067 19.6978Z" fill="#99A0B6"/>
<path d="M49.5502 31.6234C49.458 31.7457 49.2609 31.7889 49.1212 31.6834C48.9989 31.5912 48.9557 31.3941 49.0611 31.2543C49.1534 31.1321 49.3505 31.0889 49.4902 31.1943C49.63 31.2997 49.6557 31.4836 49.5502 31.6234Z" fill="#99A0B6"/>
<path d="M48.7352 15.3001C48.6166 15.4573 48.3714 15.4916 48.2141 15.373C48.0569 15.2544 48.0226 15.0092 48.1412 14.852C48.2599 14.6947 48.5051 14.6604 48.6623 14.7791C48.837 14.9109 48.8538 15.1429 48.7352 15.3001Z" fill="#99A0B6"/>
</g>
<defs>
<clipPath id="clip0_39_21409">
<rect width="13.2397" height="61.2747" fill="white" transform="translate(47.4752 49.0255) rotate(142.964)"/>
</clipPath>
<clipPath id="clip1_39_21409">
<rect width="13.2397" height="61.2747" fill="white" transform="matrix(0.798262 0.602311 0.602311 -0.798262 21.1473 48.9565)"/>
</clipPath>
</defs>
</svg>
