<svg width="55" height="62" viewBox="0 0 55 62" fill="none" xmlns="http://www.w3.org/2000/svg">
<path d="M29.0286 54.3415H29.021C28.756 54.3411 28.5014 54.443 28.3114 54.6254C28.1214 54.8078 28.0111 55.0563 28.0039 55.3178C27.9943 55.6941 27.98 56.1497 27.961 56.6846C27.921 57.8202 27.8816 58.7025 27.8429 59.3315L27.542 58.6909L25.3515 54.3302L24.6286 54.3387L22.6896 56.1258L22.6658 56.821L22.4658 60.8205L22.3629 62C22.8782 61.9925 23.2286 61.9887 23.4162 61.9887C23.6378 61.9887 23.9601 61.9925 24.3829 62L24.4353 59.7576L24.5458 57.0937C24.7127 57.4574 24.8747 57.791 25.0315 58.0946C25.2696 58.5743 25.5302 59.0759 25.8134 59.5995L26.6705 61.1986C26.755 61.3635 26.8861 61.6294 27.0639 61.9963C27.6302 61.9887 28.0747 61.985 28.3972 61.985C28.7832 61.985 29.1981 61.9887 29.6419 61.9963L29.6734 60.654L29.9029 56.0026L30.0258 54.3283C29.4778 54.3371 29.1454 54.3415 29.0286 54.3415Z" fill="white"/>
<path d="M30.9904 61.9981C31.0627 61.2381 31.1123 60.6276 31.1389 60.1667C31.1802 59.4851 31.2196 58.5479 31.257 57.3552C31.2942 56.1625 31.3037 56.1522 31.3037 55.7402V55.3329C31.3055 55.0673 31.4138 54.8132 31.6051 54.6265C31.7963 54.4397 32.0548 54.3355 32.3237 54.3368C32.9719 54.3368 33.5894 54.3368 34.1761 54.3368C35.0649 54.3368 35.9221 54.333 36.7475 54.3255C36.6929 55.1871 36.6656 55.7515 36.6656 56.0186L36.2199 56.0026L35.8618 55.997L35.5037 55.9913H34.4951C34.3789 55.9913 34.0396 55.9951 33.477 56.0026L33.4304 57.311L34.1732 57.3279H35.0018C35.2411 57.3279 35.6065 57.3223 36.098 57.311C36.0599 58.019 36.0408 58.5733 36.0408 58.974C35.4923 58.9552 35.0853 58.9458 34.8199 58.9458C34.3703 58.9458 33.8799 58.9552 33.3484 58.974L33.2951 60.9964L33.2894 61.7489V61.9962L32.1884 61.985L30.9904 61.9981Z" fill="white"/>
<path d="M38.9579 61.9981C39.1275 60.1796 39.2291 58.1761 39.2627 55.9876L37.0856 56.0449L37.1113 55.4213C37.1113 55.3809 37.1113 55.3395 37.1113 55.2981C37.1212 55.038 37.233 54.7919 37.4231 54.6116C37.6132 54.4314 37.8668 54.3311 38.1303 54.3321C38.8548 54.3358 39.6529 54.3377 40.5246 54.3377L41.7884 54.3321H43.017L43.6836 54.3264L43.6532 54.8767C43.6398 55.172 43.6303 55.416 43.6246 55.6085C43.6246 55.8013 43.617 55.9471 43.617 56.0449C42.8874 56.0048 42.2859 55.9844 41.8122 55.9838H41.4541C41.4027 56.6447 41.3633 57.2558 41.336 57.8171C41.2979 58.6204 41.2684 59.4008 41.2475 60.1583C41.2265 60.9158 41.2163 61.5278 41.217 61.9944C40.6576 61.9868 40.296 61.9831 40.1322 61.9831C39.9868 61.9856 39.5954 61.9906 38.9579 61.9981Z" fill="white"/>
<path d="M0.818115 54.5917C0.853353 54.2399 0.878112 53.9549 0.892398 53.7348C0.91208 53.4357 0.932081 53.0594 0.952398 52.606L0.990496 51.6334C1.00764 51.1913 1.02002 50.7684 1.02764 50.3645C1.03272 50.1469 1.03621 49.9331 1.03811 49.723C1.03886 49.6242 1.05931 49.5265 1.09829 49.4355C1.13727 49.3445 1.19402 49.2619 1.2653 49.1926C1.33658 49.1232 1.421 49.0684 1.51373 49.0313C1.60646 48.9942 1.70568 48.9754 1.80573 48.9762H1.8324C2.03558 48.9762 2.27589 48.9734 2.55335 48.9677C2.49557 49.687 2.44287 50.5812 2.39525 51.6504C2.34764 52.7195 2.32383 53.7 2.32383 54.5917C2.03811 54.586 1.78859 54.5832 1.58859 54.5832C1.36097 54.5832 1.10288 54.586 0.818115 54.5917ZM2.4743 52.2251L3.12001 51.2045L3.37906 50.7652C3.44651 50.6498 3.54377 50.5542 3.6609 50.4881C3.77803 50.422 3.91083 50.3878 4.04573 50.389H4.38573C4.63144 50.389 4.92096 50.389 5.25715 50.3805L4.5143 51.4509C4.33906 51.6955 4.16001 51.9589 3.97715 52.2411C4.15239 52.596 4.5743 53.3798 5.24287 54.5926C4.94954 54.587 4.68541 54.5842 4.45049 54.5842C4.21557 54.5842 3.94033 54.587 3.62477 54.5926L3.39144 54.0772C3.30954 53.8984 3.23842 53.7486 3.17811 53.6275C3.15525 53.5786 2.98382 53.2419 2.66383 52.6173L2.4743 52.2251Z" fill="white"/>
<path d="M5.60858 54.5917C5.64382 54.2568 5.66953 53.9803 5.68668 53.764C5.70382 53.5476 5.72097 53.2692 5.73716 52.9315C5.75335 52.5938 5.76763 52.2204 5.78096 51.8103C5.7943 51.4002 5.80287 50.9261 5.81049 50.3853C6.1362 50.3909 6.39652 50.3937 6.59144 50.3937C6.76985 50.3937 7.0254 50.3909 7.3581 50.3853C7.31493 50.9045 7.28318 51.3604 7.26286 51.7529C7.24255 52.1455 7.23048 52.5615 7.22667 53.0011C7.21651 53.7818 7.21144 54.312 7.21144 54.5917C6.91303 54.5861 6.65652 54.5832 6.44191 54.5832C6.22731 54.5832 5.94953 54.5861 5.60858 54.5917ZM5.84763 49.8576C5.85742 49.7805 5.85997 49.7027 5.85525 49.6252V49.6111C5.85801 49.4125 5.94015 49.2231 6.08377 49.084C6.22738 48.945 6.42082 48.8677 6.62191 48.869H6.62763C6.91334 48.869 7.15906 48.869 7.37144 48.8605C7.36382 48.9461 7.35906 49.0176 7.3562 49.075L7.33429 49.5857C7.32858 49.6629 7.32668 49.7532 7.32668 49.8576C7.07906 49.8519 6.84128 49.8491 6.61334 49.8491C6.3854 49.8491 6.13017 49.8519 5.84763 49.8576Z" fill="white"/>
<path d="M10.8237 53.3801C10.778 53.6115 10.7399 53.8363 10.7066 54.0564L10.6247 54.5587C10.4337 54.6079 10.2401 54.6465 10.0447 54.6744C9.91069 54.6903 9.77586 54.6985 9.64089 54.6989C9.44871 54.7016 9.25688 54.6818 9.06946 54.6396C8.91414 54.6049 8.77129 54.5291 8.65613 54.4205C8.54967 54.3211 8.47207 54.1954 8.43137 54.0564C8.3899 53.9143 8.36937 53.767 8.37042 53.6191C8.37042 53.5918 8.37042 53.5429 8.37042 53.4733C8.37042 53.4037 8.38185 53.2475 8.39708 53.0029L8.47899 51.577H7.89423C7.90692 51.3888 7.91804 51.138 7.92756 50.8245L7.93899 50.4416H8.56089C8.56724 50.3833 8.57486 50.294 8.58375 50.1736C8.59526 50.0113 8.65923 49.857 8.76622 49.7334C8.87321 49.6098 9.01757 49.5234 9.17803 49.4869L9.25994 49.469C9.3774 49.444 9.62787 49.3812 10.0114 49.2809C9.99422 49.6412 9.98089 50.0334 9.97422 50.4435H10.8314C10.8117 51.0142 10.8018 51.3904 10.8018 51.5723H9.94279L9.89708 52.607C9.89708 52.7612 9.89041 52.86 9.89041 52.9042C9.88749 53.0152 9.90064 53.1261 9.92946 53.2334C9.94905 53.3117 9.99898 53.3792 10.0685 53.4215C10.1351 53.4603 10.2112 53.4805 10.2885 53.4798C10.3523 53.4799 10.416 53.4749 10.479 53.4648C10.5956 53.4438 10.7107 53.4155 10.8237 53.3801Z" fill="white"/>
<path d="M14.5027 53.2777C14.4903 53.3877 14.4598 53.589 14.4075 53.8834L14.3122 54.5419C13.9366 54.6433 13.5492 54.6958 13.1598 54.698C12.9175 54.7008 12.6759 54.6691 12.4427 54.6039C12.1977 54.5316 11.9737 54.4027 11.7894 54.2277C11.5934 54.0437 11.4451 53.816 11.357 53.5636C11.2472 53.2419 11.1937 52.9041 11.1989 52.5647C11.1979 52.2302 11.251 51.8978 11.356 51.5798C11.4475 51.2873 11.607 51.0199 11.8217 50.7991C12.0092 50.6049 12.245 50.4629 12.5056 50.3871C12.7758 50.3141 13.055 50.2786 13.3351 50.2818C13.5146 50.2819 13.6939 50.2923 13.8722 50.3128C14.0973 50.3423 14.32 50.3869 14.5389 50.4464L14.5465 50.5404C14.5541 50.6345 14.5598 50.7399 14.5636 50.8433C14.5675 50.9468 14.5751 51.1086 14.5884 51.3315L14.6103 51.6984C14.3083 51.5726 13.9855 51.5028 13.6579 51.4924C13.4765 51.4881 13.2971 51.5313 13.1379 51.6175C12.9904 51.6994 12.8743 51.827 12.8075 51.9805C12.733 52.1545 12.6967 52.342 12.7008 52.5308C12.6951 52.7125 12.7275 52.8935 12.796 53.0623C12.8565 53.2014 12.9648 53.315 13.1017 53.383C13.2447 53.455 13.4032 53.4918 13.5637 53.4902C13.6653 53.4889 13.7666 53.4791 13.8665 53.4611C13.9827 53.4423 14.0836 53.4206 14.1703 53.3981C14.2835 53.3647 14.3945 53.3245 14.5027 53.2777Z" fill="white"/>
<path d="M15.1714 54.5917C15.2114 54.1828 15.2403 53.8464 15.2581 53.5824C15.2923 53.0306 15.3285 52.3891 15.3666 51.6579C15.3895 51.1744 15.4066 50.7104 15.418 50.2658C15.418 50.0776 15.4257 49.8989 15.4285 49.7193C15.431 49.5213 15.5124 49.3323 15.655 49.1932C15.7976 49.0541 15.99 48.9762 16.1904 48.9762H16.2066C16.4771 48.9762 16.7314 48.9762 16.9685 48.9677L16.8904 49.9648C16.8784 50.1297 16.8584 50.4633 16.8304 50.9656C16.893 50.8762 16.9608 50.7905 17.0333 50.7088C17.0865 50.6514 17.1449 50.5989 17.2076 50.5517C17.2673 50.5058 17.331 50.4652 17.398 50.4304C17.4717 50.3946 17.5485 50.3656 17.6276 50.3438C17.7212 50.3175 17.8167 50.2984 17.9133 50.2865C18.0197 50.2723 18.1269 50.2654 18.2342 50.2658C18.4425 50.2654 18.6499 50.2916 18.8514 50.3438C19.0416 50.3913 19.2165 50.4854 19.3599 50.6176C19.4925 50.7359 19.5911 50.8868 19.6457 51.0549C19.6976 51.2264 19.723 51.4046 19.7209 51.5836C19.7209 51.6579 19.7209 51.7567 19.7152 51.8789C19.7095 52.0012 19.7038 52.1555 19.6914 52.3417L19.6085 53.731C19.599 53.9041 19.5933 54.0471 19.5923 54.1609C19.5914 54.2747 19.5923 54.4186 19.5923 54.5917C19.3314 54.586 19.0828 54.5832 18.8447 54.5832C18.5771 54.5832 18.3047 54.5832 18.0295 54.5917C18.0726 54.2267 18.1101 53.806 18.1419 53.3294C18.1736 52.8528 18.1895 52.4975 18.1895 52.2636C18.1895 52.0059 18.1403 51.8247 18.0419 51.72C17.9913 51.6678 17.9301 51.6269 17.8623 51.5999C17.7944 51.573 17.7216 51.5607 17.6485 51.5638C17.5134 51.5599 17.3797 51.5924 17.2619 51.6579C17.1532 51.7241 17.0629 51.8159 16.999 51.925C16.9205 52.0621 16.8658 52.2112 16.8371 52.3662C16.7742 52.708 16.7353 53.0537 16.7209 53.4009C16.7057 53.6517 16.6907 54.0471 16.6761 54.587C16.4222 54.5813 16.186 54.5785 15.9676 54.5785C15.7492 54.5785 15.4838 54.5829 15.1714 54.5917Z" fill="white"/>
<path d="M22.6228 54.6989C22.7818 54.6989 22.938 54.6904 23.0933 54.6782L24.0761 53.7489C24.1056 53.5607 24.1285 53.4272 24.1437 53.3472C23.8872 53.4342 23.6258 53.5065 23.3609 53.5636C23.1752 53.6032 22.986 53.6246 22.7961 53.6275C22.5442 53.6354 22.2965 53.5621 22.0904 53.4187C21.8999 53.2782 21.8047 53.0606 21.8047 52.7659C21.8047 52.7302 21.8047 52.6907 21.8047 52.6474H24.4361C24.4675 52.4748 24.484 52.2998 24.4856 52.1244C24.4879 51.8741 24.449 51.625 24.3704 51.387C24.2936 51.1557 24.1631 50.9454 23.9895 50.7727C23.8076 50.5921 23.5805 50.4623 23.3314 50.3965C23.0654 50.323 22.7904 50.2862 22.5142 50.2874C22.2408 50.287 21.9689 50.3273 21.7076 50.4068C21.4461 50.485 21.2072 50.6233 21.0104 50.8104C20.7877 51.0329 20.6191 51.3024 20.5171 51.5986C20.3906 51.9292 20.3261 52.2798 20.3266 52.6333C20.3259 52.8793 20.358 53.1244 20.4218 53.3623C20.4771 53.5806 20.5716 53.7874 20.7009 53.9727C20.8234 54.1441 20.9783 54.2903 21.1571 54.4035C21.355 54.5248 21.575 54.6066 21.8047 54.6443C22.0752 54.6866 22.349 54.7049 22.6228 54.6989ZM21.8876 51.7595C21.9072 51.6936 21.935 51.6304 21.9704 51.5713C22.0072 51.5059 22.0545 51.4468 22.1104 51.3964C22.1659 51.3463 22.2306 51.307 22.3009 51.2807C22.3706 51.2548 22.4445 51.2417 22.519 51.2421C22.6206 51.2403 22.7209 51.2643 22.8104 51.3117C22.8996 51.3623 22.9693 51.4407 23.0085 51.5346C23.0578 51.6503 23.0815 51.7751 23.078 51.9005C23.078 51.9335 23.078 51.9739 23.078 52.02H21.8399C21.8504 51.9323 21.8663 51.8453 21.8876 51.7595Z" fill="white"/>
<path d="M41.8532 31.4703L29.5332 19.167L23.2475 12.9636C16.7323 21.6455 10.4371 28.4462 7.3066 31.6547C6.5066 32.4749 6.49232 33.8934 7.3066 34.6985L15.6104 42.7352C16.3799 40.4598 17.3751 38.7338 17.9104 38.2494C20.577 35.8348 19.4066 34.817 19.4066 34.817C20.3532 34.3674 20.898 35.6636 20.898 35.6636C21.8951 37.2401 23.1904 36.165 23.8113 34.137C24.6085 31.5305 24.2304 28.2459 26.558 26.2546C28.0723 24.9593 29.9989 26.3232 29.9989 26.3232C29.1675 26.5114 28.0675 28.0323 28.3113 29.558C28.8256 32.7608 32.1265 32.9066 32.997 31.8353C33.5199 31.1819 33.8136 30.3784 33.8342 29.5458C35.9351 30.5965 37.9723 33.3478 37.3818 36.8986C38.7913 35.1491 40.3856 33.439 41.8532 31.4703ZM8.45326 33.5623C8.34996 33.5624 8.24892 33.5323 8.16295 33.4758C8.07698 33.4192 8.00994 33.3387 7.97032 33.2445C7.9307 33.1503 7.92028 33.0465 7.94039 32.9465C7.9605 32.8464 8.01022 32.7545 8.08327 32.6823C8.15632 32.6102 8.2494 32.5611 8.35073 32.5412C8.45206 32.5213 8.55707 32.5316 8.65248 32.5708C8.74788 32.6099 8.82938 32.6761 8.88666 32.761C8.94393 32.8459 8.97441 32.9457 8.97422 33.0477C8.97422 33.1842 8.91933 33.3151 8.82163 33.4116C8.72393 33.508 8.59143 33.5623 8.45326 33.5623Z" fill="white"/>
<path opacity="0.2" d="M24.4562 42.1934L26.22 42.5537C24.9048 42.2546 23.98 41.1352 23.0333 40.0874C22.7529 39.8353 22.4919 39.5631 22.2524 39.2728C22.52 39.5268 22.7772 39.8052 23.0333 40.0874C23.6619 40.6602 24.3667 41.1352 25.08 41.598C23.5068 40.3762 22.005 39.0673 20.5819 37.6775C19.2067 36.3606 17.7162 35.3118 16.2248 34.263C15.6238 33.8285 15.1372 33.2876 14.6791 32.7223C14.7619 32.7298 14.8457 32.7345 14.9305 32.7345C14.3623 32.0355 13.7241 31.3949 13.0258 30.8223C12.96 30.7686 12.8962 30.715 12.8296 30.6623C11.3956 29.5218 10.0491 28.2781 8.801 26.9412C8.47434 26.597 8.08005 26.3148 7.75339 25.9696C7.44196 25.7721 7.45624 26.5688 6.98196 26.1991C6.98713 26.2413 6.98713 26.2839 6.98196 26.3261C7.37815 26.5753 7.77434 26.7522 7.72196 26.9742C7.56196 27.3504 6.82291 26.8604 6.16482 26.7268C6.10186 26.7647 6.03517 26.7962 5.96577 26.8208L5.84768 26.6957C5.8172 26.6957 5.78767 26.7014 5.7572 26.7042C5.67459 26.8022 5.56945 26.8793 5.45054 26.929L5.88101 27.3824C5.56372 27.4465 5.2342 27.4137 4.93625 27.2883L4.92958 27.2959L4.91339 27.2789C4.84673 27.2517 4.7772 27.2225 4.70387 27.1849C5.14387 28.6579 3.98387 27.9571 2.89435 28.2703C2.97017 28.3938 3.07101 28.5004 3.19054 28.5836L2.99054 28.767C3.5953 29.6634 3.82292 30.4253 4.14958 31.4186C4.24482 31.6528 3.98387 31.8964 4.22959 32.1551C4.88387 32.8436 5.47434 33.5943 6.19434 34.2245C7.80767 35.4934 9.26386 36.7698 10.6953 38.1121C10.6998 38.0914 10.7112 38.0729 10.7277 38.0594C11.0667 38.3886 11.4058 38.7178 11.7477 39.0593C12.0753 39.4045 12.5181 39.4797 12.8458 39.8249L15.4172 40.3498C14.4019 39.6543 13.4234 38.9077 12.4858 38.113C11.8851 37.6325 11.2568 37.1868 10.6039 36.7783C10.4037 36.6453 10.2218 36.4872 10.0629 36.308C10.0734 36.2844 10.0829 36.259 10.0915 36.2336C10.3086 36.4218 10.5258 36.6212 10.7524 36.8074C10.9819 36.9184 11.3429 36.9071 11.4248 36.9955C11.8839 37.2194 12.2934 37.654 12.7686 38.0189C13.2267 38.2419 13.5058 38.795 13.98 39.1646C14.0619 39.2512 14.2753 39.2154 14.3419 39.1543C14.7686 39.856 15.4591 39.8607 15.961 40.4636L15.9943 40.4702L15.8991 40.141C16.1515 40.3235 16.3981 40.4457 16.6677 40.6113L23.6257 42.0316C22.2229 41.1249 20.0324 37.8308 18.3657 38.1836C18.8286 37.1075 21.1048 38.7225 21.761 39.4129C22.6067 40.3917 23.6171 41.2191 24.7476 41.8586C24.6893 41.9981 24.5871 42.1155 24.4562 42.1934ZM6.53529 29.3709C6.53529 29.3991 6.52958 29.4273 6.52768 29.4546C6.40672 29.3963 6.28768 29.3342 6.17625 29.2712C6.23983 29.2617 6.30471 29.2658 6.36661 29.283C6.4285 29.3001 6.486 29.3301 6.53529 29.3709ZM5.81339 29.3925C5.83061 29.3767 5.84981 29.3631 5.87053 29.3521C6.68767 30.0105 7.5791 30.6492 8.02767 31.3462C7.25148 30.7075 6.35244 30.0801 5.81339 29.3925ZM8.90672 34.976L8.88577 34.9704C8.89529 34.9619 8.90481 34.9516 8.91434 34.9412C8.91148 34.9525 8.90957 34.9638 8.90672 34.976Z" fill="#B7D2F4"/>
<path opacity="0.2" d="M54.117 48.6772C54.2077 48.6727 54.2981 48.6626 54.3875 48.6471C52.7746 46.8389 51.0235 45.1559 49.1494 43.6128C48.7933 43.3542 48.439 43.0852 48.0828 42.8105C48.2209 42.9817 48.358 43.1548 48.4913 43.3335L47.9999 42.8161C47.9218 42.7334 47.8447 42.6515 47.7666 42.5669C47.1733 42.1041 46.5704 41.6187 45.9361 41.1005C46.4675 41.4917 47.0009 41.8962 47.5361 42.3138C46.6342 41.3149 45.739 40.2276 44.679 39.4102C44.0675 39.0226 43.3837 38.3915 42.6923 37.9136C42.6641 37.9155 42.6361 37.9193 42.6085 37.9249C42.5695 37.876 42.5295 37.8308 42.4895 37.7819C42.3866 37.733 42.2675 37.6879 42.1933 37.6625C41.5075 37.1291 40.799 36.6146 40.1199 36.0145C40.0542 35.9703 39.9876 35.9204 39.9218 35.8791C39.7142 35.7474 39.5123 35.4483 39.3504 35.2761C39.6009 35.5395 39.8599 35.7831 40.1218 36.0145C40.9876 36.5921 41.7675 36.9307 42.4914 37.7819C42.5508 37.8073 42.6058 37.842 42.6542 37.8845L42.6942 37.9136C43.1485 37.8845 43.6828 38.447 44.1447 38.9333C44.1504 38.7658 44.3533 39.0649 44.4409 38.9841C45.1075 39.3387 45.7742 39.6923 46.3152 40.0018C47.1447 40.5286 47.7123 41.2989 48.5485 41.6582C48.7999 41.7523 49.0837 42.1351 49.3733 42.3524C49.518 42.423 49.6675 42.5076 49.818 42.5951C49.7113 42.4549 49.6066 42.3129 49.5056 42.1662C49.4675 42.0392 51.858 44.0992 51.9523 43.8508C51.9961 43.8104 50.019 42.1417 48.7475 40.8258C48.6342 40.4495 49.6047 40.4495 49.8152 40.5831C49.8456 40.5906 49.8771 40.6029 49.9104 40.6132C49.7313 40.4072 49.5542 40.1993 49.3761 39.9962C49.0371 39.7253 48.6983 39.4512 48.3599 39.1741C47.8139 38.7282 47.2675 38.2761 46.7209 37.8177C46.8885 37.9202 47.058 38.0218 47.2294 38.1196C47.3171 38.161 47.4028 38.2137 47.4875 38.2588C48.1675 38.6614 48.7723 39.3039 49.3761 39.9962C49.7628 40.3034 50.1498 40.6054 50.5371 40.902L50.5713 40.9199C50.1513 40.474 49.7513 39.9933 49.3504 39.5343C48.4656 38.8298 47.5818 38.097 46.6952 37.3558C46.8618 37.4593 47.0313 37.559 47.2037 37.6578C47.9894 38.0397 48.6713 38.7555 49.3504 39.5343C50.1923 40.205 51.0351 40.8512 51.8828 41.4541C51.4066 40.9528 50.8618 40.3837 50.3494 39.9275C48.2333 38.1403 46.2542 36.5309 44.2666 34.8989C43.9602 34.7852 43.6729 34.6267 43.4142 34.4286C42.8352 33.9931 42.2618 33.3939 41.7266 32.9133C41.7209 33.0807 41.4752 32.8192 41.4314 32.8625C40.7647 32.5079 40.2361 31.8645 39.6628 31.2634C39.5809 31.1778 39.6247 31.1374 39.5771 31.0151C38.3876 30.5777 37.4047 29.4386 36.4133 28.3597C36.1397 28.1012 35.8796 27.829 35.6342 27.5442C35.8971 27.8029 36.1552 28.0804 36.4133 28.3597C37.0285 28.9323 37.6755 29.4706 38.3514 29.972C36.8114 28.6419 35.399 27.3382 33.9904 25.9273C32.6371 24.5897 31.2342 23.46 29.8314 22.3304C29.2753 21.8582 28.7628 21.3382 28.3 20.7764C28.3695 20.7962 28.439 20.8141 28.5085 20.8272C27.9244 20.1444 27.2944 19.5011 26.6228 18.9018C26.5609 18.8463 26.499 18.7899 26.4323 18.7344C24.9914 17.4777 23.8247 16.3358 22.4914 14.9333C22.1647 14.5881 21.7923 14.2852 21.4657 13.941C21.18 13.7227 21.3228 14.3972 20.8695 14.0077C20.8792 14.0425 20.8856 14.0781 20.8885 14.114C21.2562 14.3896 21.6114 14.6031 21.6057 14.7819C21.5371 15.0706 20.8438 14.5382 20.2828 14.3181C20.2359 14.3397 20.1863 14.3549 20.1352 14.3633L20.0181 14.2401C19.9938 14.2362 19.9693 14.2337 19.9447 14.2325C19.8921 14.3024 19.8163 14.3517 19.7305 14.3718C19.8743 14.5232 20.0162 14.6737 20.1609 14.8251C19.8794 14.8167 19.6052 14.7342 19.3666 14.5862V14.5919L19.3505 14.5749C19.2905 14.5411 19.2285 14.5053 19.16 14.4621C19.7695 15.7789 18.6971 14.9954 17.8524 15.081C17.9368 15.198 18.0368 15.3033 18.1495 15.3942L18.0181 15.5165C18.6666 16.3725 18.9819 17.0525 19.4181 17.9442C19.5381 18.1578 19.3619 18.3205 19.6085 18.5792C20.2628 19.2677 20.8752 19.9986 21.5743 20.6485C23.1143 21.9851 24.5266 23.3011 25.9323 24.6687C25.9317 24.6613 25.933 24.6538 25.936 24.6469C25.939 24.64 25.9436 24.6339 25.9495 24.6292C26.2838 24.9632 26.6162 25.298 26.9571 25.6413C27.2981 25.9847 27.6619 26.122 27.9895 26.4672C30.199 28.7924 32.4152 30.9399 34.7304 33.0751C34.9887 33.1839 35.2395 33.3096 35.4809 33.4513C35.3445 33.3082 35.2173 33.1567 35.0999 32.9979C37.1114 33.7269 39.3152 36.2205 40.9761 37.274C42.8228 38.5081 44.5847 40.1542 46.319 41.948C47.3218 42.6929 48.3361 43.4821 49.3371 44.3164C48.3666 43.6091 47.4066 42.8481 46.3752 42.0072C47.2971 42.9619 48.2114 43.9571 49.1266 44.9532C50.279 45.9559 51.258 47.0311 52.3961 48.0789C52.6818 48.2971 52.9313 48.5558 53.1828 48.6433C53.4123 48.6612 53.6409 48.679 53.858 48.6828C53.5237 48.3655 53.1704 48.0684 52.7999 47.793C52.8532 47.8165 52.8847 47.7789 52.9104 47.7563C52.4552 47.2944 52.059 47.0292 51.5961 46.5429C52.4885 47.016 53.2894 47.8588 54.117 48.6772ZM42.0218 35.2263C43.2247 35.9468 44.3485 36.9956 45.4504 38.0002C45.5599 38.0773 45.6704 38.1525 45.7799 38.2259C45.982 38.3788 46.159 38.5615 46.3047 38.7677L46.3847 38.8373L46.3313 38.8044C46.5352 39.0913 46.6971 39.4007 46.958 39.7271L47.0837 39.7723L46.9523 39.8946C45.9047 39.4036 45.2275 38.2522 44.2771 37.512C43.039 36.5544 41.8475 35.389 40.4761 34.5537C40.2685 34.422 40.0666 34.1229 39.9047 33.9508C40.6095 34.4314 41.3199 34.7456 42.0237 35.2263H42.0218ZM21.0295 16.602C21.0295 16.6245 21.0295 16.6481 21.0381 16.6706C20.9276 16.601 20.819 16.5295 20.7171 16.4581C20.8354 16.4705 20.9461 16.5219 21.0314 16.6038L21.0295 16.602ZM20.439 16.5013C20.4508 16.4909 20.4644 16.4827 20.479 16.4769C21.2628 17.1663 22.1038 17.8521 22.5895 18.5133C21.8476 17.8492 21.0009 17.172 20.4409 16.5032L20.439 16.5013ZM23.9238 21.7208L23.9066 21.7133L23.9247 21.6936C23.9256 21.7032 23.9259 21.713 23.9257 21.7227L23.9238 21.7208ZM34.838 30.7019C34.0399 30.4705 33.1828 29.4791 32.2666 28.8686C31.9809 28.6504 31.6438 28.4726 31.3552 28.2553C30.0333 27.2122 28.7123 26.1681 27.3961 24.9566C26.8609 24.4797 26.2009 23.9586 25.6209 23.5221C25.4316 23.3752 25.256 23.2118 25.0962 23.0339C25.0962 23.0151 25.1038 22.9963 25.1066 22.9756C25.3181 23.1741 25.5295 23.3744 25.7466 23.5682C25.9552 23.6999 26.2504 23.7498 26.3323 23.8363C26.7476 24.1006 27.1561 24.5305 27.6095 24.9208C28.0247 25.1842 28.3466 25.6968 28.8 26.0872C28.8386 26.1235 28.8873 26.1477 28.9399 26.1565C28.9925 26.1654 29.0465 26.1586 29.0952 26.137C29.58 26.8209 30.1704 26.9225 30.7009 27.5659L30.5419 27.2263C30.9142 27.5301 31.2476 27.7069 31.6999 28.0982C32.0276 28.4425 32.4485 28.5385 32.6942 28.7971C33.6009 29.5769 34.4199 30.4385 35.2933 30.9248C35.1295 30.922 34.9657 30.7499 34.8399 30.7038L34.838 30.7019ZM32.2457 25.9762C32.4438 25.1438 34.5895 26.8801 35.2447 27.5706C36.098 28.5291 37.0609 29.3867 38.1142 30.1262C37.6799 31.6585 34.0142 25.9452 32.2476 25.9781L32.2457 25.9762Z" fill="#B7D2F4"/>
<path opacity="0.2" d="M28.1743 41.1164C27.639 40.6404 27.0771 40.0272 26.5038 39.4233C26.4504 39.3624 26.4017 39.2976 26.3581 39.2295C25.4781 38.5071 24.4533 37.4038 23.4505 36.338C23.1914 36.0719 22.9324 35.801 22.6733 35.5206C22.9286 35.7859 23.1895 36.0615 23.4505 36.338C24.0419 36.9457 24.6324 37.5242 25.2267 38.1008C23.7981 36.6682 22.4524 35.2987 21.0714 33.8623C19.7505 32.4937 18.4791 31.2418 17.2067 29.9907C16.6895 29.479 16.1914 28.9485 15.6981 28.4161C15.7476 28.4547 15.7934 28.4914 15.8429 28.5262C15.2295 27.8678 14.6286 27.2357 13.98 26.58C13.921 26.5208 13.8629 26.4615 13.8029 26.4023C12.461 25.0544 11.3267 23.8823 9.99337 22.4789C9.6667 22.1347 9.3267 21.7998 9.00098 21.4555C8.74479 21.2072 9.08765 21.6992 8.66765 21.2787C8.6867 21.305 8.7048 21.3314 8.71908 21.3549C9.0448 21.67 9.34003 21.94 9.40384 22.0538C9.47242 22.2156 8.85623 21.6154 8.43337 21.2637C8.40813 21.2587 8.38375 21.2501 8.36099 21.2383L8.24384 21.115L8.19718 21.0831C8.19718 21.1122 8.16384 21.1085 8.12099 21.0943L8.55146 21.5468C8.34778 21.4148 8.15654 21.2649 7.98004 21.099L7.96384 21.0831L7.80766 20.9401C8.67242 22.019 7.73146 21.115 7.25623 20.8582C7.33527 20.9523 7.43622 21.0558 7.55337 21.1715L7.52004 21.2016C8.23527 21.9973 8.68194 22.5551 9.28194 23.2954C9.43527 23.4779 9.39146 23.5183 9.63717 23.777C10.2915 24.4655 10.9362 25.1663 11.6019 25.8464C13.0305 27.2827 14.3829 28.6598 15.7457 30.066C15.7391 30.0547 15.7372 30.0481 15.741 30.0472L16.7295 31.0753C17.0572 31.4205 17.3362 31.6481 17.6638 31.9933C19.8733 34.3185 22.0191 36.5309 24.22 38.7724C24.4105 38.931 24.6086 39.105 24.8143 39.2944C24.6838 39.1571 24.5514 39.0122 24.4152 38.8608L28.2714 41.1992C28.2421 41.1682 28.2096 41.1405 28.1743 41.1164ZM9.75241 23.0283C9.76194 23.0442 9.77241 23.0602 9.78289 23.0762L9.50956 22.8204C9.59692 22.882 9.67823 22.9516 9.75241 23.0283ZM9.35908 22.7461C9.35908 22.7461 9.3667 22.7461 9.37432 22.7461C10.1057 23.4826 10.8715 24.2388 11.4143 24.8474C10.7134 24.1382 9.9486 23.3857 9.35908 22.7451V22.7461ZM13.4181 27.4097V27.404L13.4286 27.421L13.4181 27.4097ZM23.3962 37.2862C22.8248 36.8403 21.9391 35.8828 21.1581 35.1472C20.9019 34.8989 20.6333 34.6609 20.3772 34.4126C19.1876 33.2472 17.9962 32.0817 16.7476 30.8091C16.2457 30.3021 15.6505 29.7198 15.1372 29.2222C14.9648 29.0558 14.7981 28.8827 14.6362 28.7115L14.621 28.6776C14.8229 28.8846 15.0257 29.0924 15.2305 29.2984C15.4048 29.4612 15.601 29.6023 15.6838 29.6888C16.0334 30.0133 16.4457 30.4413 16.8619 30.8646C17.2114 31.1891 17.6 31.6406 18.02 32.061C18.1019 32.1476 18.2105 32.2134 18.2162 32.2031C18.7667 32.8258 19.16 33.1098 19.7229 33.7241L19.4991 33.4419C19.8372 33.7767 20.1048 34.0147 20.5248 34.4352C20.8533 34.7804 21.1419 34.9995 21.3876 35.2563C22.2276 36.0972 23.0467 36.9598 23.7571 37.5975C23.6571 37.5308 23.4886 37.3577 23.3962 37.2815V37.2862ZM20.0467 33.2613C19.8505 32.791 21.7991 34.7145 22.4543 35.405C23.26 36.2713 24.2381 37.258 25.1476 38.1233C25.4667 38.9501 21.0962 33.8887 20.0467 33.2566V33.2613Z" fill="#B7D2F4"/>
<path d="M36.1562 4.20175L31.8628 0C30.2533 2.74003 28.0019 6.30687 24.6857 10.9037C24.0505 11.7841 24.54 13.0474 25.3581 13.7641L28.5457 16.9622C32.5838 11.3665 33.0743 10.5453 36.26 5.73497C36.6419 5.16401 36.5895 4.62692 36.1562 4.20175ZM32.2962 3.39752C32.1932 3.39734 32.0926 3.367 32.007 3.31035C31.9215 3.25371 31.8548 3.17328 31.8156 3.07925C31.7763 2.98522 31.7661 2.8818 31.7863 2.78205C31.8065 2.68231 31.8562 2.59072 31.9291 2.51885C32.002 2.44699 32.0948 2.39808 32.1958 2.3783C32.2969 2.35853 32.4016 2.36877 32.4967 2.40774C32.5918 2.44671 32.6731 2.51266 32.7303 2.59725C32.7875 2.68184 32.8181 2.78128 32.8181 2.883C32.8181 2.95065 32.8046 3.01763 32.7783 3.08012C32.7521 3.14261 32.7136 3.19937 32.6652 3.24716C32.6167 3.29495 32.5591 3.33283 32.4958 3.35863C32.4325 3.38443 32.3647 3.39765 32.2962 3.39752Z" fill="white"/>
<path d="M44.3437 44.9072H0" stroke="white" stroke-width="6" stroke-miterlimit="10"/>
</svg>
