<svg width="21" height="17" viewBox="0 0 21 17" fill="none" xmlns="http://www.w3.org/2000/svg">
<path d="M2.83532 3.3902C2.84788 3.2654 2.83106 3.13938 2.7862 3.02224C2.74134 2.90511 2.66968 2.80009 2.57697 2.71561L0.661859 0.391434V0.0438843H6.60608L11.2011 10.1987L15.2405 0.0438843H20.9079V0.391434L19.2706 1.9713C19.2012 2.02486 19.1477 2.09626 19.1157 2.17788C19.0838 2.2595 19.0746 2.34826 19.0892 2.4347V14.0545C19.0746 14.141 19.0838 14.2297 19.1157 14.3113C19.1477 14.393 19.2012 14.4644 19.2706 14.5179L20.87 16.0988V16.4474H12.8281V16.0998L14.4849 14.48C14.6479 14.316 14.6479 14.2678 14.6479 14.0176V4.62456L10.0426 16.4084H9.42133L4.05944 4.62456V12.5229C4.01535 12.854 4.12505 13.1892 4.35675 13.4291L6.51073 16.0619V16.4084H0.403503V16.0619L2.55646 13.4291C2.67038 13.3103 2.75492 13.1664 2.80334 13.0091C2.85176 12.8517 2.86271 12.6852 2.83532 12.5229V3.3902Z" fill="white"/>
</svg>

