<svg width="22" height="18" viewBox="0 0 22 18" fill="none" xmlns="http://www.w3.org/2000/svg">
<path d="M21.2791 2.26668C20.5 2.61192 19.663 2.8452 18.7831 2.95064C19.691 2.40738 20.3702 1.55236 20.6941 0.545104C19.8411 1.05177 18.9075 1.4084 17.9339 1.59951C17.2793 0.900489 16.4121 0.437168 15.4671 0.281478C14.5221 0.125788 13.5522 0.28644 12.7079 0.738491C11.8635 1.19054 11.1921 1.9087 10.7977 2.78147C10.4034 3.65424 10.3082 4.63279 10.527 5.56519C8.79858 5.47841 7.10775 5.02917 5.56421 4.24663C4.02067 3.46409 2.65892 2.36574 1.56734 1.02285C1.1941 1.66669 0.979482 2.41317 0.979482 3.20818C0.979065 3.92386 1.15531 4.62858 1.49257 5.25982C1.82984 5.89105 2.3177 6.42928 2.91287 6.82675C2.22263 6.80478 1.54762 6.61827 0.944024 6.28275V6.33873C0.943954 7.34251 1.29117 8.31539 1.92675 9.09231C2.56233 9.86923 3.44714 10.4023 4.43103 10.6011C3.79072 10.7744 3.1194 10.8 2.46778 10.6758C2.74537 11.5395 3.28611 12.2947 4.01427 12.8359C4.74244 13.377 5.62159 13.6768 6.52864 13.6934C4.98886 14.9022 3.08725 15.5579 1.12971 15.555C0.782953 15.5551 0.436488 15.5348 0.0921021 15.4943C2.07912 16.7719 4.39215 17.4499 6.75445 17.4473C14.7511 17.4473 19.1227 10.8242 19.1227 5.07998C19.1227 4.89336 19.118 4.70487 19.1096 4.51825C19.96 3.90331 20.694 3.14183 21.2772 2.26948L21.2791 2.26668Z" fill="white"/>
</svg>
