<svg width="10" height="11" viewBox="0 0 10 11" fill="none" xmlns="http://www.w3.org/2000/svg">
<path d="M9.69334 5.27996L8.62418 3.99922L8.77316 2.30533L7.19133 1.92891L6.36316 0.459961L4.87334 1.13017L3.38353 0.459961L2.55536 1.92432L0.973526 2.29615L1.12251 3.99463L0.0533447 5.27996L1.12251 6.5607L0.973526 8.25918L2.55536 8.6356L3.38353 10.1L4.87334 9.42516L6.36316 10.0954L7.19133 8.63101L8.77316 8.25459L8.62418 6.5607L9.69334 5.27996ZM3.72531 7.12074L2.68244 6.01903C2.64181 5.97656 2.60959 5.92611 2.5876 5.87058C2.56561 5.81505 2.55429 5.75552 2.55429 5.6954C2.55429 5.63528 2.56561 5.57575 2.5876 5.52022C2.60959 5.46468 2.64181 5.41424 2.68244 5.37177L2.71311 5.33964C2.884 5.16061 3.16444 5.16061 3.33533 5.33964L4.0408 6.08329L6.29744 3.71461C6.46833 3.53558 6.74876 3.53558 6.91965 3.71461L6.95033 3.74674C7.12122 3.92577 7.12122 4.21497 6.95033 4.394L4.35629 7.12074C4.17664 7.29977 3.90058 7.29977 3.72531 7.12074Z" fill="#2081E2"/>
</svg>
